<?xml version="1.0" encoding="utf-8"?>
<!-- Generator: Adobe Illustrator 23.0.1, SVG Export Plug-In . SVG Version: 6.00 Build 0)  -->
<svg version="1.1" id="Layer_1" xmlns="http://www.w3.org/2000/svg" xmlns:xlink="http://www.w3.org/1999/xlink" x="0px" y="0px"
	 viewBox="0 0 552.8 205.3" style="enable-background:new 0 0 552.8 205.3;" xml:space="preserve">
<style type="text/css">
	.st0{fill:none;}
</style>
<title>rs_school_js</title>
<path d="M133,167.2l24.2,7.3c-1.3,6.1-4,11.9-7.7,17c-3.4,4.5-7.9,8-13,10.3c-5.2,2.3-11.8,3.5-19.8,3.5c-9.7,0-17.7-1.4-23.8-4.2
	c-6.2-2.8-11.5-7.8-16-14.9c-4.5-7.1-6.7-16.2-6.7-27.3c0-14.8,3.9-26.2,11.8-34.1s19-11.9,33.4-11.9c11.3,0,20.1,2.3,26.6,6.8
	c6.4,4.6,11.2,11.6,14.4,21l-24.4,5.4c-0.6-2.1-1.5-4.2-2.7-6c-1.5-2.1-3.4-3.7-5.7-4.9c-2.3-1.2-4.9-1.7-7.5-1.7
	c-6.3,0-11.1,2.5-14.4,7.6c-2.5,3.7-3.8,9.6-3.8,17.6c0,9.9,1.5,16.7,4.5,20.4s7.2,5.5,12.7,5.5c5.3,0,9.3-1.5,12-4.4
	C129.8,177.1,131.8,172.8,133,167.2L133,167.2z M189.5,114.4h27.6v31.3h30.2v-31.3h27.8v89.4h-27.8v-36.2h-30.2v36.2h-27.6
	C189.5,203.8,189.5,114.4,189.5,114.4z"/>
<path d="M271.3,159.1c0-14.6,4.1-26,12.2-34.1s19.5-12.2,34-12.2c14.9,0,26.3,4,34.4,12S364,144,364,158.4c0,10.5-1.8,19-5.3,25.7
	c-3.4,6.6-8.7,12-15.2,15.6c-6.7,3.7-15,5.6-24.9,5.6c-10.1,0-18.4-1.6-25-4.8c-6.8-3.4-12.4-8.7-16.1-15.2
	C273.4,178.3,271.3,169.6,271.3,159.1z M298.9,159.2c0,9,1.7,15.5,5,19.5c3.3,3.9,7.9,5.9,13.7,5.9c5.9,0,10.5-1.9,13.8-5.8
	s4.9-10.8,4.9-20.8c0-8.4-1.7-14.6-5.1-18.4c-3.4-3.9-8-5.8-13.8-5.8c-5.1-0.2-10,2-13.4,5.9S298.9,150.1,298.9,159.2L298.9,159.2z
	 M392.3,159.1c0-14.6,4.1-26,12.2-34.1s19.5-12.2,34-12.2c14.9,0,26.4,4,34.4,12S485,144,485,158.4c0,10.5-1.8,19-5.3,25.7
	c-3.4,6.6-8.7,12-15.2,15.6c-6.7,3.7-15,5.6-24.9,5.6c-10.1,0-18.4-1.6-25-4.8c-6.8-3.4-12.4-8.7-16.1-15.2
	C394.4,178.3,392.3,169.6,392.3,159.1z M419.9,159.2c0,9,1.7,15.5,5,19.5c3.3,3.9,7.9,5.9,13.7,5.9c5.9,0,10.5-1.9,13.8-5.8
	c3.3-3.9,4.9-10.8,4.9-20.8c0-8.4-1.7-14.6-5.1-18.4c-3.4-3.9-8-5.8-13.8-5.8c-5.1-0.2-10.1,2-13.4,5.9
	C421.6,143.6,419.9,150.1,419.9,159.2L419.9,159.2z"/>
<path d="M482.1,114.4h27.6v67.4h43.1v22H482v-89.4H482.1z"/>
<ellipse transform="matrix(0.7986 -0.6018 0.6018 0.7986 43.8091 266.744)" class="st0" cx="420.5" cy="67.9" rx="63" ry="51.8"/>
<g>
	<path class="st0" d="M46.2,26.3H34v18.1h11.7c2.5-0.2,4.9-0.6,7.3-1.2c1.8-0.3,3.4-1.3,4.5-2.8c2.7-3.6,2.3-8.7-1-11.8
		C54.7,27.1,51.2,26.3,46.2,26.3z"/>
	<line class="st0" x1="6.3" y1="97.6" x2="6.3" y2="97.5"/>
	<path d="M348.6,95.3c5.3-2.3,9.8-6,13.1-10.7c-1.1-8.4,0.1-17.3,3.3-25.9c-0.5-1.2-1.1-2.4-1.8-3.6c-2.3-3.9-6.1-7.2-11.4-9.9
		s-13.9-5.3-26-7.9c-4.9-1-8-2.1-9.3-3.3c-1.2-0.9-2-2.3-2-3.8c-0.1-2,0.9-3.8,2.4-5c1.6-1.3,4-2,7.2-2c3.9,0,6.9,0.9,9.2,2.8
		c2.3,1.9,3.7,4.8,4.4,8.8l26-1.5C362.6,24,359,17.2,353,13c-6-4.3-14.7-6.4-26.1-6.4c-9.3,0-16.7,1.2-22,3.5c-4.9,1.9-9,5.3-12,9.6
		c-2.6,3.8-4,8.4-4,13c-0.2,6.7,2.7,13,7.8,17.3c5.1,4.6,13.8,8.2,25.9,10.9c7.4,1.6,12.1,3.4,14.1,5.2c1.9,1.5,3,3.8,3,6.2
		c0,2.5-1.2,4.9-3.2,6.4c-2.1,1.9-5.2,2.8-9.1,2.8c-5.3,0-9.3-1.8-12.2-5.4c-1.8-2.3-2.9-5.5-3.5-9.8L285.4,68
		c0.7,9,4.2,16.4,10.1,22.3s16.4,8.8,31.6,8.8C335.7,99.1,342.9,97.8,348.6,95.3z"/>
	<path d="M77.1,66.2c-1.3-1.7-2.7-3.3-4.4-4.7c-2.2-1.4-4.7-2.6-7.2-3.3c3.4-0.6,6.7-1.8,9.7-3.5c7.7-4.4,12.2-12.8,11.9-21.6
		c0.1-5.2-1.3-10.2-4.2-14.5c-2.6-3.9-6.5-6.8-10.9-8.2c-4.5-1.5-11.1-2.2-19.6-2.2H6.3v89.3H34V61.2h2.4c2.4,0,4.8,0.7,6.8,2.1
		c1.5,1.1,3.1,3.4,5,6.9L63,97.7h31.4L81,71.8C79.9,69.8,78.6,67.9,77.1,66.2z M57.5,40.4c-1.1,1.5-2.7,2.5-4.5,2.8
		c-2.4,0.6-4.8,1-7.3,1.2H34V26.3h12.2c5,0,8.5,0.8,10.3,2.3C59.8,31.7,60.2,36.8,57.5,40.4z"/>
	<path d="M66.2,151.7c-5.3-2.7-13.9-5.3-26-7.9c-4.9-1-8-2.1-9.3-3.3c-1.2-0.9-2-2.3-2-3.8c-0.1-2,0.8-3.8,2.4-5
		c1.6-1.4,4-2.1,7.2-2.1c3.9-0.1,7,0.8,9.2,2.7c2.3,1.9,3.7,4.8,4.4,8.8l26-1.5c-1.1-9.3-4.6-16-10.6-20.3s-14.7-6.4-26.1-6.4
		c-9.3,0-16.7,1.2-22,3.5c-4.9,1.9-9,5.3-12,9.6c-2.6,3.8-4,8.4-4,13c-0.2,6.7,2.7,13,7.8,17.3c5.1,4.6,13.8,8.2,25.9,10.9
		c7.5,1.6,12.2,3.4,14.2,5.2c1.9,1.5,3,3.8,3,6.2c0,2.5-1.2,4.8-3.2,6.4c-2.1,1.9-5.2,2.8-9.1,2.8c-5.3,0-9.4-1.9-12.2-5.5
		c-1.8-2.3-2.9-5.5-3.5-9.8L0,174.2l0,0c0.8,9,4.1,16.4,10,22.4c5.9,5.9,16.4,8.8,31.6,8.8c8.6,0,15.8-1.3,21.5-3.8
		c5.4-2.3,10-6.1,13.3-11c3.1-4.7,4.8-10.2,4.8-15.8c0-4.6-1.2-9.2-3.6-13.2C75.3,157.7,71.5,154.4,66.2,151.7z"/>
	<path d="M361.7,84.6c1,7.7,3.7,14.9,8.5,21.2c17.2,22.8,53.7,24.4,81.5,3.5c27.8-21,36.3-56.5,19.1-79.3s-53.7-24.4-81.5-3.5
		c-11.7,8.8-20,20.2-24.4,32.2C361.8,67.3,360.6,76.2,361.7,84.6z M390.5,28.1c12.7-9.6,27.3-14.3,41-14.3c15.1,0,29,5.8,37.7,17.4
		c8,10.6,10.4,24.3,7,38.7c-3.5,14.5-12.6,27.9-25.7,37.8S422,122.6,407.1,122c-14.8-0.6-27.3-6.8-35.3-17.4
		C355.3,82.7,363.7,48.3,390.5,28.1z"/>
	<path d="M401.9,95.4c-0.7,0.5-1.6,0.9-2.5,0.9c-1.2,0-2.2-0.4-3.2-1.1c-1.3-1.1-2.5-2.4-3.4-3.8l-11.3,10.5c2.1,2.9,4.9,5.1,8,6.7
		c2.9,1.3,6.1,1.8,9.1,1.3c3.2-0.5,6.8-2.2,11.2-5.3c3.7-2.4,6.5-5.7,8.2-9.6c1.3-3.2,1.6-6.7,0.7-10c-1.6-4.3-3.7-8.3-6.5-12
		l-16.3-23l-13.2,9.2l0,0l18.4,26c1.4,1.7,2.4,4,2.8,6.2C404.1,93,403.2,94.6,401.9,95.4z"/>
	<path d="M421.7,61.6c4,0.4,9.2-0.7,15.9-3.4c4.1-1.7,6.8-2.4,8.4-2.2c0.4,0,0.8,0.1,1.2,0.3c2.4,0.8,3.7,3.4,2.9,5.8
		c-0.5,1.8-1.8,3.3-3.4,4.3c-2.2,1.7-5,2.2-7.6,1.4c-1.8-0.7-3.6-1.8-4.9-3.4l-12,9.5c3,3.8,7.2,6.5,12.4,7.2
		c4.7,0.8,10.7-1.3,17.9-6.3c3.6-2.4,6.6-5.4,9-9c1.8-2.9,2.8-6.2,2.6-9.6c-0.1-3.3-1.2-6.5-3-9.1c-1.4-2.2-3.6-4.1-6.1-5.1
		c-2.8-1.2-5.8-1.4-8.7-0.9c-3.4,0.5-8.4,2.1-15,4.9c-2.6,1.2-4.5,1.7-5.5,1.6c-0.9,0-1.7-0.5-2.2-1.2c-0.7-0.9-0.9-2.1-0.5-3.2
		c0.5-1.4,1.4-2.6,2.8-3.4l0.4-0.4c3-2.4,7.5-1.7,9.9,1.3l11.9-9.4c-3.7-4.1-7.6-6.1-11.9-6.1c-4.2,0-9.1,1.8-14.6,5.7
		c-3.7,2.4-6.7,5.4-9.2,9c-1.7,2.5-2.5,5.5-2.5,8.6c0.1,2.6,0.9,5.3,2.5,7.5C414.4,59.3,417.9,61.2,421.7,61.6z"/>
</g>
</svg>
