<?xml version="1.0" encoding="utf-8"?>
<!-- Generator: Adobe Illustrator 23.0.1, SVG Export Plug-In . SVG Version: 6.00 Build 0)  -->
<svg version="1.1" id="Слой_1" xmlns="http://www.w3.org/2000/svg" xmlns:xlink="http://www.w3.org/1999/xlink" x="0px" y="0px"
	 viewBox="0 0 576 512" style="enable-background:new 0 0 576 512;" xml:space="preserve">
<style type="text/css">
	.st0{fill:#505050;}
</style>
<g>
	<path class="st0" d="M531.1,32h-411C111,12.8,91.5,0,69.5,0H24C10.7,0,0,10.7,0,24s10.7,24,24,24h45.5c3.9,0,7.2,2.7,7.9,6.5
		l51.6,271c6.4,33.9,36.1,58.5,70.7,58.5H488c13.3,0,24-10.7,24-24s-10.7-24-24-24H199.7c-11.5,0-21.4-8.2-23.6-19.5l-5.4-28.5
		h288.5c32.5,0,61-21.9,69.5-53.3l41-152.3C576.6,57,557.4,32,531.1,32z M273.4,250.3L214,196.6l-15.4,2.9l11.8,62.7l-42.7,8
		L135.6,99.3l68.8-12.9c9.5-1.8,17.9-2.7,25.1-2.9c7.3-0.1,14.2,1.1,20.9,3.7c6.9,2.8,12.6,6.8,17.4,12.1c4.7,5.3,8,12.6,9.7,21.9
		c2.5,13.1,1.5,24.3-2.9,33.5c-4.4,9.3-11,17.2-20,23.9l71.1,61.9L273.4,250.3z M442.9,205.6c-11.4,12.8-28.5,21.4-51.2,25.7
		c-13.1,2.5-24.8,3.4-35.2,2.7c-10.4-0.7-20.2-2.1-29.4-4.2l-7.6-40.6l3.9-0.7c9.9,5.7,20.4,9.5,31.5,11.4c11.1,2,21.5,2,31.2,0.2
		c2.4-0.5,5.6-1.3,9.5-2.6c3.9-1.3,7-2.7,9.2-4.3c2.7-1.9,4.9-4.2,6.6-6.9c1.6-2.7,2.1-6,1.4-9.8c-0.8-4.3-3.1-7.4-7-9.5
		c-3.9-2-8.3-3.2-13.2-3.6c-6.1-0.4-12.6-0.7-19.5-0.9c-6.9-0.1-13.4-0.7-19.5-1.6c-14.1-2.2-24.8-6.7-32-13.5
		c-7.2-6.8-11.9-16.1-14.2-28c-3-16,1.3-30.2,13-42.7c11.7-12.5,27.7-20.6,47.9-24.4c10.2-1.9,20.5-2.8,30.9-2.6
		c10.4,0.2,20,1.3,28.6,3.3l7.3,39l-3.8,0.7c-7.4-4.2-16-7.4-25.8-9.4c-9.8-2-19.6-2.1-29.2-0.3c-3.7,0.7-7.1,1.6-9.9,2.7
		c-2.9,1.1-5.8,2.7-8.8,4.9c-2.5,1.7-4.4,4-5.9,6.8c-1.5,2.8-2,5.7-1.4,8.6c0.8,4.4,3,7.5,6.6,9.5c3.6,2,10,3.2,19.3,3.6
		c6,0.2,11.7,0.4,17.3,0.7c5.5,0.2,11.5,0.8,18,1.8c12.7,2.1,22.6,6.2,29.7,12.3c7.1,6.1,11.8,15.1,14,27
		C458.4,177.9,454.3,192.8,442.9,205.6z"/>
	<path class="st0" d="M229.8,124.3c-2.2-2.8-5.4-4.7-9.6-5.6c-2.9-0.6-6-0.8-9.4-0.5c-3.3,0.3-7.5,0.9-12.4,1.8l-14.3,2.7l8.6,46
		l12.3-2.3c6-1.1,11-2.4,15-3.9c4-1.5,7.3-3.7,9.7-6.6c2.4-2.7,3.9-5.6,4.7-8.8c0.8-3.2,0.7-7.3-0.2-12.1
		C233.5,130.6,232,127.1,229.8,124.3z"/>
	<circle class="st0" cx="176" cy="464" r="48"/>
	<circle class="st0" cx="464" cy="464" r="48"/>
</g>
</svg>
