<?xml version="1.0" encoding="utf-8"?>
<!-- Generator: Adobe Illustrator 23.0.1, SVG Export Plug-In . SVG Version: 6.00 Build 0)  -->
<svg version="1.1" id="Слой_1" xmlns="http://www.w3.org/2000/svg" xmlns:xlink="http://www.w3.org/1999/xlink" x="0px" y="0px"
	 viewBox="0 0 150 30" style="enable-background:new 0 0 150 30;" xml:space="preserve">
<style type="text/css">
	.st0{fill:#666666;}
</style>
<g>
	<path class="st0" d="M15.1,3.6l3.5,7.1l0.2,0.5l0.5,0.1l7.9,1.2l-5.8,5.6l-0.4,0.4l0.1,0.5l1.4,7.8l-7-3.7l-0.5-0.2l-0.5,0.2
		l-7.1,3.7L8.9,19L9,18.5l-0.4-0.4l-5.8-5.6l7.9-1.2l0.5-0.1l0.2-0.5L15.1,3.6 M15.1,1.4l-4.5,8.9l-9.9,1.5l7.2,7l-1.7,9.8l8.9-4.6
		l8.8,4.6l-1.7-9.8l7.2-7l-9.9-1.5L15.1,1.4L15.1,1.4z"/>
</g>
<path class="st0" d="M45,3.6l3.6,7.1l0.2,0.5l0.5,0.1l7.9,1.2l-5.8,5.6l-0.4,0.4l0.1,0.5l1.4,7.8l-7.1-3.7L45,22.9l-0.5,0.2l-7,3.7
	l1.4-7.8l0.1-0.5l-0.4-0.4l-5.8-5.6l7.9-1.2l0.5-0.1l0.2-0.5L45,3.6 M45,1.4l-4.4,8.9l-9.9,1.5l7.2,7l-1.7,9.8L45,24l8.9,4.6
	l-1.7-9.8l7.2-7l-9.9-1.5L45,1.4L45,1.4z"/>
<path class="st0" d="M75,3.7l3.5,7.1l0.2,0.5l0.5,0.1l7.9,1.2l-5.7,5.6l-0.4,0.4l0.1,0.5l1.4,7.8l-7.1-3.7L75,22.9l-0.5,0.2
	l-7.1,3.7l1.4-7.8l0.1-0.5l-0.4-0.4l-5.7-5.6l7.9-1.2l0.5-0.1l0.2-0.5L75,3.7 M75,1.4l-4.4,8.9l-9.9,1.5l7.1,7l-1.7,9.8L75,24
	l8.9,4.6l-1.7-9.8l7.1-7l-9.9-1.5L75,1.4L75,1.4z"/>
<path class="st0" d="M105,3.6l3.5,7.1l0.2,0.5l0.5,0.1l7.9,1.2l-5.8,5.6l-0.4,0.4l0.1,0.5l1.4,7.8l-7-3.7l-0.5-0.2l-0.5,0.2
	l-7.1,3.7l1.4-7.8l0.1-0.5l-0.4-0.4l-5.8-5.6l7.9-1.2l0.5-0.1l0.2-0.5L105,3.6 M105,1.4l-4.5,8.9l-9.9,1.5l7.2,7l-1.7,9.8L105,24
	l8.8,4.6l-1.7-9.8l7.2-7l-9.9-1.5L105,1.4L105,1.4z"/>
<path class="st0" d="M134.9,3.6l3.6,7.1l0.2,0.5l0.5,0.1l7.9,1.2l-5.8,5.6l-0.4,0.4l0.1,0.5l1.4,7.8l-7.1-3.7l-0.5-0.2l-0.5,0.2
	l-7,3.7l1.4-7.8l0.1-0.5l-0.4-0.4l-5.8-5.6l7.9-1.2l0.5-0.1l0.2-0.5L134.9,3.6 M134.9,1.4l-4.4,8.9l-9.9,1.5l7.2,7l-1.7,9.8l8.8-4.6
	l8.9,4.6l-1.7-9.8l7.2-7l-9.9-1.5L134.9,1.4L134.9,1.4z"/>
</svg>
