<?xml version="1.0" encoding="utf-8"?>
<!-- Generator: Adobe Illustrator 23.0.1, SVG Export Plug-In . SVG Version: 6.00 Build 0)  -->
<svg version="1.1" id="Слой_1" xmlns="http://www.w3.org/2000/svg" xmlns:xlink="http://www.w3.org/1999/xlink" x="0px" y="0px"
	 viewBox="0 0 20 20" style="enable-background:new 0 0 20 20;" xml:space="preserve">
<style type="text/css">
	.st0{fill:#BEBEBE;}
</style>
<path class="st0" d="M16.1,8.2c0,1.8-0.6,3.4-1.5,4.7l4.8,4.8c0.5,0.5,0.5,1.3,0,1.7c-0.5,0.5-1.3,0.5-1.7,0l-4.8-4.8
	c-1.3,1-2.9,1.5-4.7,1.5c-4.4,0-7.9-3.5-7.9-7.9s3.5-7.9,7.9-7.9S16.1,3.8,16.1,8.2z M8.2,13.7c3,0,5.5-2.5,5.5-5.5
	s-2.5-5.5-5.5-5.5S2.7,5.1,2.7,8.2S5.1,13.7,8.2,13.7z"/>
</svg>
