<?xml version="1.0" encoding="utf-8"?>
<!-- Generator: Adobe Illustrator 23.0.1, SVG Export Plug-In . SVG Version: 6.00 Build 0)  -->
<svg version="1.1" id="Слой_1" xmlns="http://www.w3.org/2000/svg" xmlns:xlink="http://www.w3.org/1999/xlink" x="0px" y="0px"
	 viewBox="0 0 150 30" style="enable-background:new 0 0 150 30;" xml:space="preserve">
<style type="text/css">
	.st0{fill:#FBB03B;}
</style>
<g>
	<polygon class="st0" points="15.1,1.4 19.5,10.3 29.4,11.8 22.2,18.8 23.9,28.6 15.1,24 6.2,28.6 7.9,18.8 0.7,11.8 10.6,10.3 	"/>
	<polygon class="st0" points="45,1.4 49.5,10.3 59.4,11.8 52.2,18.8 53.9,28.6 45,24 36.2,28.6 37.9,18.8 30.7,11.8 40.6,10.3 	"/>
	<polygon class="st0" points="75,1.4 79.4,10.3 89.3,11.8 82.2,18.8 83.9,28.6 75,24 66.1,28.6 67.8,18.8 60.7,11.8 70.6,10.3 	"/>
	<polygon class="st0" points="105,1.4 109.4,10.3 119.3,11.8 112.1,18.8 113.8,28.6 105,24 96.1,28.6 97.8,18.8 90.6,11.8 
		100.5,10.3 	"/>
	<polygon class="st0" points="134.9,1.4 139.4,10.3 149.3,11.8 142.1,18.8 143.8,28.6 134.9,24 126.1,28.6 127.8,18.8 120.6,11.8 
		130.5,10.3 	"/>
</g>
</svg>
