<?xml version="1.0" encoding="utf-8"?>
<!-- Generator: Adobe Illustrator 23.0.1, SVG Export Plug-In . SVG Version: 6.00 Build 0)  -->
<svg version="1.1" id="Слой_1" xmlns="http://www.w3.org/2000/svg" xmlns:xlink="http://www.w3.org/1999/xlink" x="0px" y="0px"
	 viewBox="0 0 40 40" style="enable-background:new 0 0 40 40;" xml:space="preserve">
<g>
	<path d="M36.8,10.9H3.2C1.5,10.9,0,9.5,0,7.7v0c0-1.8,1.5-3.2,3.2-3.2h33.5c1.8,0,3.2,1.5,3.2,3.2v0C40,9.5,38.5,10.9,36.8,10.9z"
		/>
	<path d="M36.8,23.2H3.2c-1.8,0-3.2-1.5-3.2-3.2v0c0-1.8,1.5-3.2,3.2-3.2h33.5c1.8,0,3.2,1.5,3.2,3.2v0C40,21.7,38.5,23.2,36.8,23.2
		z"/>
	<path d="M36.8,35.4H3.2c-1.8,0-3.2-1.5-3.2-3.2v0c0-1.8,1.5-3.2,3.2-3.2h33.5c1.8,0,3.2,1.5,3.2,3.2v0C40,33.9,38.5,35.4,36.8,35.4
		z"/>
</g>
</svg>
